<svg id="Layer_1" data-name="Layer 1" xmlns="http://www.w3.org/2000/svg" xmlns:xlink="http://www.w3.org/1999/xlink" viewBox="0 0 405.05 441.3"><defs><style>.cls-1{fill:#fff;}.cls-2{clip-path:url(#clip-path);}.cls-3{clip-path:url(#clip-path-2);}</style><clipPath id="clip-path" transform="translate(-41.09)"><rect class="cls-1" x="42.67" width="298.67" height="274"/></clipPath><clipPath id="clip-path-2" transform="translate(-41.09)"><rect class="cls-1" x="236" y="232" width="72" height="42"/></clipPath></defs><path class="cls-1" d="M387.19,272.09c-.24-.2-82.33-68.39-39.74-118.31l10.12-11.87,3.7,15.18c3.5,14.4,14.62,14.85,24.71,15.25,14.82.6,28.32,1.14,31.49,21.33.18,1.11.56,1.64,1,1.76a4.25,4.25,0,0,0,1.69,0,7.64,7.64,0,0,0,2.37-.8c1.31-.7,2.33-1.62,2.27-2.4-.69-9.07-65.24-96.39-65.43-96.64l12.82-9.5c.2.26,67.52,91.28,68.55,105,.59,7.86-4.25,14.28-10.7,17.72a23.74,23.74,0,0,1-7.57,2.49,20.14,20.14,0,0,1-8.32-.48c-6.13-1.72-11.1-6.32-12.42-14.7-1.13-7.21-8.4-7.5-16.36-7.82-11.73-.47-24.33-1-32.66-11.84-11.42,36.72,44.56,83.29,44.74,83.45Z" transform="translate(-41.09)"/><path class="cls-1" d="M386.55,130c-.15,0-48.94-12.43-99.36,55.35l-12.82-9.5c56.81-76.35,115.69-61.46,115.86-61.42Z" transform="translate(-41.09)"/><rect class="cls-1" x="1.58" width="298.67" height="274"/><g class="cls-2"><path class="cls-1" d="M313.12,258c-23-21-55.54-63.93-33.39-125.92L59.84,25.68c1.58,19.88,7.62,56.37,30.71,63.46,37.33,11.45,174.64,45.67,175,45.77l7.64,1.91-1.8,7.66c0,.19-16.4,66.8,38.41,113.51ZM297.19,131.14C263,213.51,340.47,259,340.7,259.15L336.57,274H307l-5-1.81C249,229.05,251.59,169.64,254.49,148.61c-28.8-7.21-135.66-34.1-168.63-44.22C42.39,91.05,43.35,12.88,43.35,12.65L43.43,0,300.08,124.18Z" transform="translate(-41.09)"/></g><path class="cls-1" d="M101.72,97.28c0,.17,8.6,60,44.72,61.12,43.33,1.3,115,4.75,115.15,4.75l-.75,15.94c-.2,0-72.37-3.48-114.83-4.75-49.67-1.49-60.07-74.54-60.1-74.75Z" transform="translate(-41.09)"/><path class="cls-1" d="M162.77,164.77c0,.11,8.9,37.61,29.45,35,27.6-3.42,70.91-10,71-10l2.37,15.82c-.12,0-43.73,6.64-71.47,10.07-34.77,4.32-46.86-47-46.89-47.18Z" transform="translate(-41.09)"/><path class="cls-1" d="M206.62,204.23c0,.08,11.24,30.31,26.65,25.21C256,221.94,270.08,216,270.13,216l6.18,14.69s-15.3,6.43-38,13.94c-30.06,9.92-46.54-34.72-46.59-34.85Z" transform="translate(-41.09)"/><rect class="cls-1" x="194.91" y="232" width="72" height="42"/><g class="cls-3"><path class="cls-1" d="M251.67,232.66c0,.07,5.21,25.33,25.92,25.33H307v16H277.59c-33.76,0-41.52-37.91-41.54-38Z" transform="translate(-41.09)"/></g><path class="cls-1" d="M88.27,343.14q0,10.91-6.43,16.84t-18.25,5.93H58.67v21.57H41.09v-65h22.5q12.31,0,18.5,5.4T88.27,343.14Zm-29.6,8.44h3.19a8.81,8.81,0,0,0,6.29-2.21,8.09,8.09,0,0,0,2.33-6.14q0-6.59-7.29-6.59H58.67Z" transform="translate(-41.09)"/><path class="cls-1" d="M137.23,387.48H98.62v-65h38.61v14.11h-21v10.23h19.48v14.08H116.21v12.29h21Z" transform="translate(-41.09)"/><path class="cls-1" d="M174.71,349.41h28.06v35a76.77,76.77,0,0,1-25.12,3.92q-15,0-23.23-8.71t-8.21-24.87q0-15.75,9-24.5t25.19-8.77a55.59,55.59,0,0,1,11.56,1.16,48.72,48.72,0,0,1,9.5,2.94l-5.54,13.77a34.66,34.66,0,0,0-15.44-3.46q-7.71,0-11.92,5t-4.19,14.3q0,9.12,3.8,13.91c2.54,3.18,6.19,4.77,11,4.77a32.42,32.42,0,0,0,7.2-.75V363H174.71Z" transform="translate(-41.09)"/><path class="cls-1" d="M255.91,387.48l-3.21-12.19H231.58l-3.29,12.19H209l21.21-65.3h23.44l21.48,65.3Zm-6.85-26.61-2.8-10.67q-1-3.56-2.39-9.2T242,332.91q-.4,2.28-1.59,7.48t-5.21,20.48Z" transform="translate(-41.09)"/><path class="cls-1" d="M324.66,367.73a19.21,19.21,0,0,1-3.07,10.75,20.11,20.11,0,0,1-8.85,7.29,32.94,32.94,0,0,1-13.56,2.6,54.57,54.57,0,0,1-10.9-.92,40.94,40.94,0,0,1-9.17-3.18V368.62a52.12,52.12,0,0,0,10.44,4,39.25,39.25,0,0,0,10,1.44q3.92,0,5.73-1.35a4.17,4.17,0,0,0,1.83-3.48,3.81,3.81,0,0,0-.75-2.34,8.63,8.63,0,0,0-2.35-2,89.28,89.28,0,0,0-8.65-4.19,41.42,41.42,0,0,1-9.54-5.6,17.26,17.26,0,0,1-4.71-6.23,20.51,20.51,0,0,1-1.54-8.31q0-9,6.54-14t18-5a50.49,50.49,0,0,1,20.59,4.66l-5.38,13.57q-9.12-4.17-15.75-4.17a8.21,8.21,0,0,0-5,1.21,3.59,3.59,0,0,0-1.56,3,4.31,4.31,0,0,0,2,3.43q2,1.5,10.75,5.5,8.38,3.79,11.67,8.13A17.69,17.69,0,0,1,324.66,367.73Z" transform="translate(-41.09)"/><path class="cls-1" d="M390,322.45V361.6q0,12.75-7.23,19.77t-20.84,7q-13.31,0-20.45-6.81T334.34,362V322.45H352v38.17q0,6.87,2.56,10t7.62,3.11c3.59,0,6.18-1,7.8-3.09s2.43-5.43,2.43-10.12V322.45Z" transform="translate(-41.09)"/><path class="cls-1" d="M446.14,367.73a19.29,19.29,0,0,1-3.06,10.75,20.2,20.2,0,0,1-8.86,7.29,32.9,32.9,0,0,1-13.56,2.6,54.64,54.64,0,0,1-10.9-.92,40.7,40.7,0,0,1-9.16-3.18V368.62a51.81,51.81,0,0,0,10.43,4,39.25,39.25,0,0,0,10,1.44q3.92,0,5.73-1.35a4.18,4.18,0,0,0,1.84-3.48,3.81,3.81,0,0,0-.75-2.34,8.69,8.69,0,0,0-2.36-2,89.88,89.88,0,0,0-8.64-4.19,41.52,41.52,0,0,1-9.55-5.6,17.12,17.12,0,0,1-4.7-6.23,20.34,20.34,0,0,1-1.55-8.31q0-9,6.55-14t18-5a50.49,50.49,0,0,1,20.59,4.66l-5.38,13.57q-9.12-4.17-15.75-4.17a8.23,8.23,0,0,0-5,1.21,3.59,3.59,0,0,0-1.56,3,4.31,4.31,0,0,0,2,3.43q2,1.5,10.75,5.5,8.39,3.79,11.67,8.13A17.69,17.69,0,0,1,446.14,367.73Z" transform="translate(-41.09)"/><path class="cls-1" d="M118.17,440.85H99.11V406.64h19.06v3.54H103.09v11h14.17v3.5H103.09v12.58h15.08Z" transform="translate(-41.09)"/><path class="cls-1" d="M165.58,440.85h-4.5l-9.21-15.05-9.36,15.05H138.3L149.68,423l-10.6-16.33h4.39l8.5,13.54,8.56-13.54h4.23l-10.6,16.18Z" transform="translate(-41.09)"/><path class="cls-1" d="M209.23,416.62a9.58,9.58,0,0,1-3.54,8q-3.54,2.79-10.15,2.79h-4v13.46h-4V406.64h8.86Q209.22,406.64,209.23,416.62ZM191.52,424h3.57q5.28,0,7.64-1.71c1.59-1.13,2.38-3,2.38-5.46a5.94,5.94,0,0,0-2.23-5.06c-1.48-1.11-3.78-1.67-6.92-1.67h-4.44Z" transform="translate(-41.09)"/><path class="cls-1" d="M237.44,426.62v14.23h-4V406.64h9.37q6.28,0,9.29,2.41t3,7.25q0,6.81-6.87,9.17l9.27,15.38h-4.69l-8.29-14.23Zm0-3.42h5.43c2.81,0,4.86-.55,6.17-1.67a6.18,6.18,0,0,0,2-5q0-3.39-2-4.89t-6.42-1.5h-5.16Z" transform="translate(-41.09)"/><path class="cls-1" d="M299.2,440.85H280.14V406.64H299.2v3.54H284.12v11h14.17v3.5H284.12v12.58H299.2Z" transform="translate(-41.09)"/><path class="cls-1" d="M343.15,431.74a8.39,8.39,0,0,1-3.27,7c-2.19,1.69-5.15,2.52-8.9,2.52q-6.09,0-9.35-1.56v-3.83a23.6,23.6,0,0,0,4.58,1.41,24.31,24.31,0,0,0,4.92.5q4,0,6-1.5a5,5,0,0,0,2-4.2,5.39,5.39,0,0,0-.71-2.9,6.58,6.58,0,0,0-2.4-2.1,33.94,33.94,0,0,0-5.08-2.19,16.56,16.56,0,0,1-6.84-4,8.93,8.93,0,0,1-2-6.11,7.58,7.58,0,0,1,3-6.29,12.44,12.44,0,0,1,7.86-2.33,23.52,23.52,0,0,1,9.39,1.85L341,411.49a21.09,21.09,0,0,0-8.23-1.79,7.94,7.94,0,0,0-4.93,1.35,4.48,4.48,0,0,0-1.78,3.77,5.82,5.82,0,0,0,.65,2.92,6.12,6.12,0,0,0,2.21,2.08,27.45,27.45,0,0,0,4.77,2.09c3.58,1.29,6,2.68,7.4,4.14A8.1,8.1,0,0,1,343.15,431.74Z" transform="translate(-41.09)"/><path class="cls-1" d="M386.51,431.74a8.39,8.39,0,0,1-3.27,7c-2.18,1.69-5.15,2.52-8.9,2.52q-6.09,0-9.35-1.56v-3.83a23.6,23.6,0,0,0,4.58,1.41,24.31,24.31,0,0,0,4.92.5q4,0,6-1.5a5,5,0,0,0,2-4.2,5.39,5.39,0,0,0-.71-2.9,6.5,6.5,0,0,0-2.4-2.1,33.48,33.48,0,0,0-5.08-2.19q-4.77-1.71-6.83-4a8.88,8.88,0,0,1-2-6.11,7.57,7.57,0,0,1,3-6.29,12.44,12.44,0,0,1,7.86-2.33,23.52,23.52,0,0,1,9.39,1.85l-1.25,3.48a21.09,21.09,0,0,0-8.22-1.79,8,8,0,0,0-4.94,1.35,4.5,4.5,0,0,0-1.77,3.77,5.82,5.82,0,0,0,.64,2.92,6.12,6.12,0,0,0,2.21,2.08,27.45,27.45,0,0,0,4.77,2.09c3.59,1.29,6.05,2.68,7.4,4.14A8.1,8.1,0,0,1,386.51,431.74Z" transform="translate(-41.09)"/></svg>