<svg xmlns="http://www.w3.org/2000/svg" xmlns:xlink="http://www.w3.org/1999/xlink" width="500" zoomAndPan="magnify" viewBox="0 0 375 374.999991" height="500" preserveAspectRatio="xMidYMid meet" version="1.0"><defs><g/><clipPath id="id1"><path d="M 32 0 L 256 0 L 256 205.5 L 32 205.5 Z M 32 0 " clip-rule="nonzero"/></clipPath><clipPath id="id2"><path d="M 177 174 L 231 174 L 231 205.5 L 177 205.5 Z M 177 174 " clip-rule="nonzero"/></clipPath></defs><path fill="#303030" d="M 290.390625 204.066406 C 290.214844 203.917969 228.648438 152.777344 260.585938 115.332031 L 268.179688 106.429688 L 270.949219 117.816406 C 273.578125 128.621094 281.914062 128.957031 289.488281 129.257812 C 300.597656 129.703125 310.726562 130.109375 313.105469 145.253906 C 313.234375 146.085938 313.519531 146.484375 313.84375 146.574219 C 314.183594 146.667969 314.625 146.671875 315.113281 146.601562 C 315.707031 146.515625 316.316406 146.304688 316.890625 146 C 317.875 145.476562 318.636719 144.785156 318.59375 144.203125 C 318.078125 137.402344 269.660156 71.910156 269.523438 71.722656 L 279.136719 64.59375 C 279.28125 64.792969 329.773438 133.058594 330.546875 143.3125 C 330.992188 149.207031 327.363281 154.023438 322.519531 156.597656 C 320.765625 157.527344 318.820312 158.175781 316.847656 158.464844 C 314.769531 158.769531 312.632812 158.675781 310.605469 158.109375 C 306.003906 156.816406 302.277344 153.371094 301.289062 147.085938 C 300.441406 141.675781 294.992188 141.457031 289.019531 141.214844 C 280.222656 140.863281 270.773438 140.484375 264.527344 132.335938 C 255.960938 159.875 297.945312 194.808594 298.078125 194.921875 Z M 290.390625 204.066406 " fill-opacity="1" fill-rule="nonzero"/><path fill="#303030" d="M 289.910156 97.519531 C 289.800781 97.492188 253.210938 88.203125 215.390625 139.035156 L 205.777344 131.910156 C 248.382812 74.644531 292.546875 85.8125 292.675781 85.84375 Z M 289.910156 97.519531 " fill-opacity="1" fill-rule="nonzero"/><g clip-path="url(#id1)"><path fill="#303030" d="M 234.839844 193.492188 C 217.621094 177.726562 193.1875 145.546875 209.796875 99.050781 L 44.882812 19.257812 C 46.066406 34.171875 50.597656 61.539062 67.914062 66.851562 C 95.910156 75.441406 198.894531 101.109375 199.191406 101.183594 L 204.925781 102.617188 L 203.574219 108.359375 C 203.539062 108.503906 191.273438 158.460938 232.378906 193.492188 Z M 222.894531 98.355469 C 197.230469 160.128906 255.355469 194.257812 255.523438 194.359375 L 252.429688 205.496094 L 230.230469 205.496094 L 226.457031 204.136719 C 186.75 171.789062 188.695312 127.230469 190.867188 111.457031 C 169.265625 106.046875 89.121094 85.878906 64.398438 78.292969 C 31.792969 68.289062 32.511719 9.660156 32.511719 9.488281 L 32.574219 0 L 225.0625 93.132812 Z M 222.894531 98.355469 " fill-opacity="1" fill-rule="nonzero"/></g><path fill="#303030" d="M 76.292969 72.960938 C 76.308594 73.089844 82.742188 117.984375 109.832031 118.796875 C 142.324219 119.773438 196.039062 122.359375 196.195312 122.363281 L 195.632812 134.320312 C 195.476562 134.3125 141.355469 131.710938 109.503906 130.753906 C 72.253906 129.636719 64.453125 74.851562 64.429688 74.695312 Z M 76.292969 72.960938 " fill-opacity="1" fill-rule="nonzero"/><path fill="#303030" d="M 122.078125 123.578125 C 122.09375 123.660156 128.75 151.78125 144.167969 149.867188 C 164.867188 147.300781 197.347656 142.371094 197.441406 142.359375 L 199.222656 154.222656 C 199.128906 154.238281 166.421875 159.199219 145.621094 161.777344 C 119.542969 165.011719 110.476562 126.503906 110.449219 126.390625 Z M 122.078125 123.578125 " fill-opacity="1" fill-rule="nonzero"/><path fill="#303030" d="M 154.964844 153.171875 C 154.988281 153.234375 163.394531 175.902344 174.953125 172.082031 C 192 166.453125 202.558594 162.019531 202.59375 162.003906 L 207.234375 173.023438 C 207.199219 173.039062 195.753906 177.847656 178.703125 183.480469 C 156.160156 190.921875 143.796875 157.4375 143.757812 157.34375 Z M 154.964844 153.171875 " fill-opacity="1" fill-rule="nonzero"/><g clip-path="url(#id2)"><path fill="#303030" d="M 188.753906 174.492188 C 188.765625 174.546875 192.660156 193.492188 208.195312 193.492188 L 230.230469 193.492188 L 230.230469 205.496094 L 208.195312 205.496094 C 182.871094 205.496094 177.050781 177.058594 177.035156 176.976562 Z M 188.753906 174.492188 " fill-opacity="1" fill-rule="nonzero"/></g><g fill="#303030" fill-opacity="1"><g transform="translate(25.548475, 290.606381)"><g><path d="M 40.65625 -33.25 C 40.65625 -27.800781 39.046875 -23.59375 35.828125 -20.625 C 32.617188 -17.65625 28.054688 -16.171875 22.140625 -16.171875 L 18.453125 -16.171875 L 18.453125 0 L 5.265625 0 L 5.265625 -48.765625 L 22.140625 -48.765625 C 28.304688 -48.765625 32.929688 -47.414062 36.015625 -44.71875 C 39.109375 -42.03125 40.65625 -38.207031 40.65625 -33.25 Z M 18.453125 -26.921875 L 20.84375 -26.921875 C 22.820312 -26.921875 24.394531 -27.472656 25.5625 -28.578125 C 26.726562 -29.691406 27.3125 -31.226562 27.3125 -33.1875 C 27.3125 -36.476562 25.488281 -38.125 21.84375 -38.125 L 18.453125 -38.125 Z M 18.453125 -26.921875 "/></g></g></g><g fill="#303030" fill-opacity="1"><g transform="translate(68.702736, 290.606381)"><g><path d="M 34.21875 0 L 5.265625 0 L 5.265625 -48.765625 L 34.21875 -48.765625 L 34.21875 -38.1875 L 18.453125 -38.1875 L 18.453125 -30.515625 L 33.0625 -30.515625 L 33.0625 -19.953125 L 18.453125 -19.953125 L 18.453125 -10.734375 L 34.21875 -10.734375 Z M 34.21875 0 "/></g></g></g><g fill="#303030" fill-opacity="1"><g transform="translate(106.187581, 290.606381)"><g><path d="M 24.84375 -28.546875 L 45.890625 -28.546875 L 45.890625 -2.265625 C 40.179688 -0.304688 33.898438 0.671875 27.046875 0.671875 C 19.535156 0.671875 13.726562 -1.503906 9.625 -5.859375 C 5.519531 -10.222656 3.46875 -16.441406 3.46875 -24.515625 C 3.46875 -32.390625 5.710938 -38.515625 10.203125 -42.890625 C 14.691406 -47.273438 20.988281 -49.46875 29.09375 -49.46875 C 32.15625 -49.46875 35.046875 -49.175781 37.765625 -48.59375 C 40.492188 -48.019531 42.867188 -47.285156 44.890625 -46.390625 L 40.734375 -36.0625 C 37.210938 -37.789062 33.351562 -38.65625 29.15625 -38.65625 C 25.300781 -38.65625 22.320312 -37.40625 20.21875 -34.90625 C 18.125 -32.40625 17.078125 -28.832031 17.078125 -24.1875 C 17.078125 -19.625 18.023438 -16.144531 19.921875 -13.75 C 21.828125 -11.363281 24.570312 -10.171875 28.15625 -10.171875 C 30.113281 -10.171875 31.914062 -10.359375 33.5625 -10.734375 L 33.5625 -18.375 L 24.84375 -18.375 Z M 24.84375 -28.546875 "/></g></g></g><g fill="#303030" fill-opacity="1"><g transform="translate(156.745432, 290.606381)"><g><path d="M 35.1875 0 L 32.78125 -9.140625 L 16.9375 -9.140625 L 14.46875 0 L 0 0 L 15.90625 -48.96875 L 33.484375 -48.96875 L 49.59375 0 Z M 30.046875 -19.953125 L 27.953125 -27.953125 C 27.460938 -29.734375 26.863281 -32.035156 26.15625 -34.859375 C 25.457031 -37.679688 25 -39.703125 24.78125 -40.921875 C 24.582031 -39.785156 24.1875 -37.914062 23.59375 -35.3125 C 23.007812 -32.71875 21.707031 -27.597656 19.6875 -19.953125 Z M 30.046875 -19.953125 "/></g></g></g><g fill="#303030" fill-opacity="1"><g transform="translate(206.336159, 290.606381)"><g><path d="M 37.15625 -14.8125 C 37.15625 -11.789062 36.390625 -9.101562 34.859375 -6.75 C 33.328125 -4.40625 31.113281 -2.582031 28.21875 -1.28125 C 25.320312 0.0195312 21.929688 0.671875 18.046875 0.671875 C 14.796875 0.671875 12.070312 0.441406 9.875 -0.015625 C 7.675781 -0.472656 5.382812 -1.269531 3 -2.40625 L 3 -14.140625 C 5.507812 -12.847656 8.117188 -11.84375 10.828125 -11.125 C 13.546875 -10.40625 16.039062 -10.046875 18.3125 -10.046875 C 20.269531 -10.046875 21.703125 -10.382812 22.609375 -11.0625 C 23.523438 -11.738281 23.984375 -12.609375 23.984375 -13.671875 C 23.984375 -14.335938 23.796875 -14.921875 23.421875 -15.421875 C 23.054688 -15.921875 22.46875 -16.425781 21.65625 -16.9375 C 20.851562 -17.457031 18.691406 -18.503906 15.171875 -20.078125 C 11.992188 -21.523438 9.609375 -22.925781 8.015625 -24.28125 C 6.429688 -25.632812 5.253906 -27.191406 4.484375 -28.953125 C 3.710938 -30.710938 3.328125 -32.789062 3.328125 -35.1875 C 3.328125 -39.675781 4.960938 -43.175781 8.234375 -45.6875 C 11.503906 -48.207031 16 -49.46875 21.71875 -49.46875 C 26.757812 -49.46875 31.90625 -48.300781 37.15625 -45.96875 L 33.125 -35.796875 C 28.5625 -37.878906 24.625 -38.921875 21.3125 -38.921875 C 19.601562 -38.921875 18.359375 -38.617188 17.578125 -38.015625 C 16.796875 -37.421875 16.40625 -36.679688 16.40625 -35.796875 C 16.40625 -34.835938 16.898438 -33.976562 17.890625 -33.21875 C 18.878906 -32.46875 21.566406 -31.09375 25.953125 -29.09375 C 30.148438 -27.195312 33.066406 -25.164062 34.703125 -23 C 36.335938 -20.832031 37.15625 -18.101562 37.15625 -14.8125 Z M 37.15625 -14.8125 "/></g></g></g><g fill="#303030" fill-opacity="1"><g transform="translate(245.755275, 290.606381)"><g><path d="M 46.734375 -48.765625 L 46.734375 -19.40625 C 46.734375 -13.03125 44.925781 -8.085938 41.3125 -4.578125 C 37.695312 -1.078125 32.488281 0.671875 25.6875 0.671875 C 19.03125 0.671875 13.914062 -1.03125 10.34375 -4.4375 C 6.78125 -7.84375 5 -12.734375 5 -19.109375 L 5 -48.765625 L 18.25 -48.765625 L 18.25 -20.140625 C 18.25 -16.703125 18.890625 -14.203125 20.171875 -12.640625 C 21.460938 -11.085938 23.367188 -10.3125 25.890625 -10.3125 C 28.578125 -10.3125 30.523438 -11.082031 31.734375 -12.625 C 32.953125 -14.164062 33.5625 -16.695312 33.5625 -20.21875 L 33.5625 -48.765625 Z M 46.734375 -48.765625 "/></g></g></g><g fill="#303030" fill-opacity="1"><g transform="translate(297.447009, 290.606381)"><g><path d="M 37.15625 -14.8125 C 37.15625 -11.789062 36.390625 -9.101562 34.859375 -6.75 C 33.328125 -4.40625 31.113281 -2.582031 28.21875 -1.28125 C 25.320312 0.0195312 21.929688 0.671875 18.046875 0.671875 C 14.796875 0.671875 12.070312 0.441406 9.875 -0.015625 C 7.675781 -0.472656 5.382812 -1.269531 3 -2.40625 L 3 -14.140625 C 5.507812 -12.847656 8.117188 -11.84375 10.828125 -11.125 C 13.546875 -10.40625 16.039062 -10.046875 18.3125 -10.046875 C 20.269531 -10.046875 21.703125 -10.382812 22.609375 -11.0625 C 23.523438 -11.738281 23.984375 -12.609375 23.984375 -13.671875 C 23.984375 -14.335938 23.796875 -14.921875 23.421875 -15.421875 C 23.054688 -15.921875 22.46875 -16.425781 21.65625 -16.9375 C 20.851562 -17.457031 18.691406 -18.503906 15.171875 -20.078125 C 11.992188 -21.523438 9.609375 -22.925781 8.015625 -24.28125 C 6.429688 -25.632812 5.253906 -27.191406 4.484375 -28.953125 C 3.710938 -30.710938 3.328125 -32.789062 3.328125 -35.1875 C 3.328125 -39.675781 4.960938 -43.175781 8.234375 -45.6875 C 11.503906 -48.207031 16 -49.46875 21.71875 -49.46875 C 26.757812 -49.46875 31.90625 -48.300781 37.15625 -45.96875 L 33.125 -35.796875 C 28.5625 -37.878906 24.625 -38.921875 21.3125 -38.921875 C 19.601562 -38.921875 18.359375 -38.617188 17.578125 -38.015625 C 16.796875 -37.421875 16.40625 -36.679688 16.40625 -35.796875 C 16.40625 -34.835938 16.898438 -33.976562 17.890625 -33.21875 C 18.878906 -32.46875 21.566406 -31.09375 25.953125 -29.09375 C 30.148438 -27.195312 33.066406 -25.164062 34.703125 -23 C 36.335938 -20.832031 37.15625 -18.101562 37.15625 -14.8125 Z M 37.15625 -14.8125 "/></g></g></g><g fill="#303030" fill-opacity="1"><g transform="translate(70.802914, 330.634211)"><g><path d="M 17.828125 0 L 3.53125 0 L 3.53125 -25.65625 L 17.828125 -25.65625 L 17.828125 -23 L 6.515625 -23 L 6.515625 -14.734375 L 17.140625 -14.734375 L 17.140625 -12.109375 L 6.515625 -12.109375 L 6.515625 -2.671875 L 17.828125 -2.671875 Z M 17.828125 0 "/></g></g></g><g fill="#303030" fill-opacity="1"><g transform="translate(103.587811, 330.634211)"><g><path d="M 20.59375 0 L 17.21875 0 L 10.3125 -11.28125 L 3.296875 0 L 0.140625 0 L 8.671875 -13.40625 L 0.71875 -25.65625 L 4.015625 -25.65625 L 10.390625 -15.5 L 16.8125 -25.65625 L 19.984375 -25.65625 L 12.03125 -13.515625 Z M 20.59375 0 "/></g></g></g><g fill="#303030" fill-opacity="1"><g transform="translate(137.127215, 330.634211)"><g><path d="M 19.796875 -18.171875 C 19.796875 -15.578125 18.910156 -13.582031 17.140625 -12.1875 C 15.367188 -10.789062 12.832031 -10.09375 9.53125 -10.09375 L 6.515625 -10.09375 L 6.515625 0 L 3.53125 0 L 3.53125 -25.65625 L 10.171875 -25.65625 C 16.585938 -25.65625 19.796875 -23.160156 19.796875 -18.171875 Z M 6.515625 -12.65625 L 9.1875 -12.65625 C 11.832031 -12.65625 13.742188 -13.082031 14.921875 -13.9375 C 16.109375 -14.789062 16.703125 -16.15625 16.703125 -18.03125 C 16.703125 -19.726562 16.144531 -20.992188 15.03125 -21.828125 C 13.925781 -22.660156 12.195312 -23.078125 9.84375 -23.078125 L 6.515625 -23.078125 Z M 6.515625 -12.65625 "/></g></g></g><g fill="#303030" fill-opacity="1"><g transform="translate(171.561521, 330.634211)"><g><path d="M 6.515625 -10.671875 L 6.515625 0 L 3.53125 0 L 3.53125 -25.65625 L 10.5625 -25.65625 C 13.707031 -25.65625 16.03125 -25.050781 17.53125 -23.84375 C 19.039062 -22.644531 19.796875 -20.832031 19.796875 -18.40625 C 19.796875 -15.007812 18.078125 -12.71875 14.640625 -11.53125 L 21.59375 0 L 18.078125 0 L 11.859375 -10.671875 Z M 6.515625 -13.234375 L 10.59375 -13.234375 C 12.695312 -13.234375 14.238281 -13.648438 15.21875 -14.484375 C 16.207031 -15.316406 16.703125 -16.570312 16.703125 -18.25 C 16.703125 -19.945312 16.203125 -21.171875 15.203125 -21.921875 C 14.203125 -22.671875 12.597656 -23.046875 10.390625 -23.046875 L 6.515625 -23.046875 Z M 6.515625 -13.234375 "/></g></g></g><g fill="#303030" fill-opacity="1"><g transform="translate(206.574878, 330.634211)"><g><path d="M 17.828125 0 L 3.53125 0 L 3.53125 -25.65625 L 17.828125 -25.65625 L 17.828125 -23 L 6.515625 -23 L 6.515625 -14.734375 L 17.140625 -14.734375 L 17.140625 -12.109375 L 6.515625 -12.109375 L 6.515625 -2.671875 L 17.828125 -2.671875 Z M 17.828125 0 "/></g></g></g><g fill="#303030" fill-opacity="1"><g transform="translate(239.359779, 330.634211)"><g><path d="M 18 -6.828125 C 18 -4.566406 17.179688 -2.804688 15.546875 -1.546875 C 13.910156 -0.285156 11.6875 0.34375 8.875 0.34375 C 5.832031 0.34375 3.492188 -0.046875 1.859375 -0.828125 L 1.859375 -3.703125 C 2.910156 -3.253906 4.054688 -2.898438 5.296875 -2.640625 C 6.535156 -2.390625 7.765625 -2.265625 8.984375 -2.265625 C 10.972656 -2.265625 12.46875 -2.640625 13.46875 -3.390625 C 14.476562 -4.148438 14.984375 -5.203125 14.984375 -6.546875 C 14.984375 -7.429688 14.804688 -8.15625 14.453125 -8.71875 C 14.097656 -9.289062 13.5 -9.816406 12.65625 -10.296875 C 11.820312 -10.773438 10.550781 -11.320312 8.84375 -11.9375 C 6.457031 -12.789062 4.75 -13.800781 3.71875 -14.96875 C 2.695312 -16.132812 2.1875 -17.660156 2.1875 -19.546875 C 2.1875 -21.523438 2.929688 -23.097656 4.421875 -24.265625 C 5.910156 -25.429688 7.875 -26.015625 10.3125 -26.015625 C 12.863281 -26.015625 15.210938 -25.550781 17.359375 -24.625 L 16.421875 -22.015625 C 14.304688 -22.910156 12.25 -23.359375 10.25 -23.359375 C 8.664062 -23.359375 7.429688 -23.019531 6.546875 -22.34375 C 5.660156 -21.664062 5.21875 -20.722656 5.21875 -19.515625 C 5.21875 -18.617188 5.378906 -17.890625 5.703125 -17.328125 C 6.023438 -16.765625 6.578125 -16.242188 7.359375 -15.765625 C 8.140625 -15.296875 9.332031 -14.773438 10.9375 -14.203125 C 13.625 -13.234375 15.472656 -12.195312 16.484375 -11.09375 C 17.492188 -10 18 -8.578125 18 -6.828125 Z M 18 -6.828125 "/></g></g></g><g fill="#303030" fill-opacity="1"><g transform="translate(271.881465, 330.634211)"><g><path d="M 18 -6.828125 C 18 -4.566406 17.179688 -2.804688 15.546875 -1.546875 C 13.910156 -0.285156 11.6875 0.34375 8.875 0.34375 C 5.832031 0.34375 3.492188 -0.046875 1.859375 -0.828125 L 1.859375 -3.703125 C 2.910156 -3.253906 4.054688 -2.898438 5.296875 -2.640625 C 6.535156 -2.390625 7.765625 -2.265625 8.984375 -2.265625 C 10.972656 -2.265625 12.46875 -2.640625 13.46875 -3.390625 C 14.476562 -4.148438 14.984375 -5.203125 14.984375 -6.546875 C 14.984375 -7.429688 14.804688 -8.15625 14.453125 -8.71875 C 14.097656 -9.289062 13.5 -9.816406 12.65625 -10.296875 C 11.820312 -10.773438 10.550781 -11.320312 8.84375 -11.9375 C 6.457031 -12.789062 4.75 -13.800781 3.71875 -14.96875 C 2.695312 -16.132812 2.1875 -17.660156 2.1875 -19.546875 C 2.1875 -21.523438 2.929688 -23.097656 4.421875 -24.265625 C 5.910156 -25.429688 7.875 -26.015625 10.3125 -26.015625 C 12.863281 -26.015625 15.210938 -25.550781 17.359375 -24.625 L 16.421875 -22.015625 C 14.304688 -22.910156 12.25 -23.359375 10.25 -23.359375 C 8.664062 -23.359375 7.429688 -23.019531 6.546875 -22.34375 C 5.660156 -21.664062 5.21875 -20.722656 5.21875 -19.515625 C 5.21875 -18.617188 5.378906 -17.890625 5.703125 -17.328125 C 6.023438 -16.765625 6.578125 -16.242188 7.359375 -15.765625 C 8.140625 -15.296875 9.332031 -14.773438 10.9375 -14.203125 C 13.625 -13.234375 15.472656 -12.195312 16.484375 -11.09375 C 17.492188 -10 18 -8.578125 18 -6.828125 Z M 18 -6.828125 "/></g></g></g></svg>