<svg xmlns="http://www.w3.org/2000/svg" xmlns:xlink="http://www.w3.org/1999/xlink" width="500" zoomAndPan="magnify" viewBox="0 0 375 374.999991" height="500" preserveAspectRatio="xMidYMid meet" version="1.0"><defs><g/><clipPath id="id1"><path d="M 222 135 L 262.5 135 L 262.5 205 L 222 205 Z M 222 135 " clip-rule="nonzero"/></clipPath><clipPath id="id2"><path d="M 112.5 102.816406 L 225 102.816406 L 225 205.566406 L 112.5 205.566406 Z M 112.5 102.816406 " clip-rule="nonzero"/></clipPath><clipPath id="id3"><path d="M 185 190 L 212 190 L 212 205.566406 L 185 205.566406 Z M 185 190 " clip-rule="nonzero"/></clipPath></defs><g clip-path="url(#id1)"><path fill="#303030" d="M 242.128906 204.847656 C 242.042969 204.773438 211.183594 179.203125 227.191406 160.480469 L 230.996094 156.03125 L 232.386719 161.722656 C 233.707031 167.125 237.882812 167.292969 241.679688 167.445312 C 247.246094 167.667969 252.324219 167.871094 253.515625 175.441406 C 253.582031 175.855469 253.726562 176.054688 253.886719 176.101562 C 254.058594 176.148438 254.277344 176.152344 254.523438 176.113281 C 254.820312 176.070312 255.125 175.96875 255.414062 175.8125 C 255.90625 175.554688 256.289062 175.207031 256.265625 174.914062 C 256.011719 171.515625 231.742188 138.769531 231.671875 138.675781 L 236.488281 135.113281 C 236.5625 135.210938 261.871094 169.34375 262.261719 174.46875 C 262.484375 177.417969 260.664062 179.824219 258.234375 181.113281 C 257.355469 181.578125 256.382812 181.902344 255.390625 182.046875 C 254.351562 182.199219 253.277344 182.152344 252.265625 181.867188 C 249.957031 181.222656 248.089844 179.5 247.59375 176.355469 C 247.167969 173.652344 244.4375 173.542969 241.445312 173.421875 C 237.035156 173.246094 232.296875 173.054688 229.167969 168.980469 C 224.875 182.753906 245.917969 200.21875 245.984375 200.277344 Z M 242.128906 204.847656 " fill-opacity="1" fill-rule="nonzero"/></g><path fill="#303030" d="M 241.890625 151.574219 C 241.835938 151.5625 223.496094 146.914062 204.539062 172.332031 L 199.722656 168.769531 C 221.074219 140.136719 243.210938 145.722656 243.277344 145.734375 Z M 241.890625 151.574219 " fill-opacity="1" fill-rule="nonzero"/><g clip-path="url(#id2)"><path fill="#303030" d="M 214.289062 199.558594 C 205.65625 191.675781 193.410156 175.585938 201.738281 152.339844 L 119.074219 112.445312 C 119.667969 119.902344 121.941406 133.582031 130.621094 136.242188 C 144.652344 140.535156 196.269531 153.371094 196.417969 153.40625 L 199.292969 154.121094 L 198.617188 156.992188 C 198.597656 157.066406 192.453125 182.046875 213.054688 199.558594 Z M 208.300781 151.992188 C 195.4375 182.878906 224.570312 199.945312 224.65625 199.996094 L 223.105469 205.5625 L 211.976562 205.5625 L 210.085938 204.882812 C 190.183594 188.707031 191.160156 166.429688 192.246094 158.542969 C 181.417969 155.839844 141.25 145.753906 128.859375 141.960938 C 112.515625 136.960938 112.875 107.644531 112.875 107.558594 L 112.90625 102.816406 L 209.386719 149.382812 Z M 208.300781 151.992188 " fill-opacity="1" fill-rule="nonzero"/></g><path fill="#303030" d="M 134.820312 139.292969 C 134.828125 139.359375 138.050781 161.804688 151.628906 162.210938 C 167.917969 162.699219 194.839844 163.992188 194.917969 163.996094 L 194.636719 169.976562 C 194.558594 169.972656 167.429688 168.667969 151.46875 168.191406 C 132.796875 167.632812 128.886719 140.242188 128.875 140.164062 Z M 134.820312 139.292969 " fill-opacity="1" fill-rule="nonzero"/><path fill="#303030" d="M 157.769531 164.605469 C 157.777344 164.644531 161.113281 178.703125 168.839844 177.746094 C 179.214844 176.464844 195.496094 174 195.542969 173.992188 L 196.4375 179.925781 C 196.390625 179.933594 179.996094 182.414062 169.570312 183.703125 C 156.496094 185.320312 151.953125 166.066406 151.9375 166.011719 Z M 157.769531 164.605469 " fill-opacity="1" fill-rule="nonzero"/><path fill="#303030" d="M 174.253906 179.398438 C 174.265625 179.433594 178.476562 190.765625 184.269531 188.855469 C 192.816406 186.042969 198.109375 183.824219 198.125 183.816406 L 200.449219 189.328125 C 200.433594 189.335938 194.695312 191.738281 186.152344 194.554688 C 174.851562 198.277344 168.652344 181.535156 168.636719 181.484375 Z M 174.253906 179.398438 " fill-opacity="1" fill-rule="nonzero"/><g clip-path="url(#id3)"><path fill="#303030" d="M 191.1875 190.058594 C 191.195312 190.085938 193.144531 199.558594 200.933594 199.558594 L 211.976562 199.558594 L 211.976562 205.5625 L 200.933594 205.5625 C 188.238281 205.5625 185.320312 191.34375 185.3125 191.304688 Z M 191.1875 190.058594 " fill-opacity="1" fill-rule="nonzero"/></g><g fill="#303030" fill-opacity="1"><g transform="translate(109.377565, 248.659964)"><g><path d="M 20.40625 -16.6875 C 20.40625 -13.957031 19.597656 -11.847656 17.984375 -10.359375 C 16.367188 -8.867188 14.078125 -8.125 11.109375 -8.125 L 9.25 -8.125 L 9.25 0 L 2.640625 0 L 2.640625 -24.46875 L 11.109375 -24.46875 C 14.203125 -24.46875 16.523438 -23.789062 18.078125 -22.4375 C 19.628906 -21.09375 20.40625 -19.175781 20.40625 -16.6875 Z M 9.25 -13.515625 L 10.46875 -13.515625 C 11.457031 -13.515625 12.242188 -13.789062 12.828125 -14.34375 C 13.410156 -14.90625 13.703125 -15.675781 13.703125 -16.65625 C 13.703125 -18.300781 12.789062 -19.125 10.96875 -19.125 L 9.25 -19.125 Z M 9.25 -13.515625 "/></g></g></g><g fill="#303030" fill-opacity="1"><g transform="translate(131.035221, 248.659964)"><g><path d="M 17.171875 0 L 2.640625 0 L 2.640625 -24.46875 L 17.171875 -24.46875 L 17.171875 -19.171875 L 9.25 -19.171875 L 9.25 -15.3125 L 16.59375 -15.3125 L 16.59375 -10.015625 L 9.25 -10.015625 L 9.25 -5.390625 L 17.171875 -5.390625 Z M 17.171875 0 "/></g></g></g><g fill="#303030" fill-opacity="1"><g transform="translate(149.84759, 248.659964)"><g><path d="M 12.46875 -14.328125 L 23.03125 -14.328125 L 23.03125 -1.140625 C 20.164062 -0.160156 17.015625 0.328125 13.578125 0.328125 C 9.804688 0.328125 6.890625 -0.765625 4.828125 -2.953125 C 2.765625 -5.140625 1.734375 -8.253906 1.734375 -12.296875 C 1.734375 -16.253906 2.859375 -19.332031 5.109375 -21.53125 C 7.367188 -23.726562 10.53125 -24.828125 14.59375 -24.828125 C 16.132812 -24.828125 17.585938 -24.679688 18.953125 -24.390625 C 20.316406 -24.097656 21.507812 -23.726562 22.53125 -23.28125 L 20.4375 -18.09375 C 18.675781 -18.96875 16.738281 -19.40625 14.625 -19.40625 C 12.695312 -19.40625 11.207031 -18.773438 10.15625 -17.515625 C 9.101562 -16.265625 8.578125 -14.472656 8.578125 -12.140625 C 8.578125 -9.847656 9.050781 -8.101562 10 -6.90625 C 10.957031 -5.707031 12.332031 -5.109375 14.125 -5.109375 C 15.101562 -5.109375 16.007812 -5.203125 16.84375 -5.390625 L 16.84375 -9.21875 L 12.46875 -9.21875 Z M 12.46875 -14.328125 "/></g></g></g><g fill="#303030" fill-opacity="1"><g transform="translate(175.220856, 248.659964)"><g><path d="M 17.65625 0 L 16.453125 -4.59375 L 8.5 -4.59375 L 7.265625 0 L 0 0 L 7.984375 -24.578125 L 16.8125 -24.578125 L 24.890625 0 Z M 15.078125 -10.015625 L 14.03125 -14.03125 C 13.78125 -14.914062 13.476562 -16.066406 13.125 -17.484375 C 12.78125 -18.910156 12.550781 -19.925781 12.4375 -20.53125 C 12.332031 -19.96875 12.132812 -19.03125 11.84375 -17.71875 C 11.550781 -16.414062 10.894531 -13.847656 9.875 -10.015625 Z M 15.078125 -10.015625 "/></g></g></g><g fill="#303030" fill-opacity="1"><g transform="translate(200.108755, 248.659964)"><g><path d="M 18.640625 -7.4375 C 18.640625 -5.914062 18.253906 -4.566406 17.484375 -3.390625 C 16.722656 -2.210938 15.613281 -1.296875 14.15625 -0.640625 C 12.707031 0.00390625 11.007812 0.328125 9.0625 0.328125 C 7.425781 0.328125 6.054688 0.21875 4.953125 0 C 3.847656 -0.226562 2.695312 -0.628906 1.5 -1.203125 L 1.5 -7.09375 C 2.757812 -6.445312 4.070312 -5.941406 5.4375 -5.578125 C 6.800781 -5.210938 8.050781 -5.03125 9.1875 -5.03125 C 10.164062 -5.03125 10.882812 -5.203125 11.34375 -5.546875 C 11.800781 -5.890625 12.03125 -6.328125 12.03125 -6.859375 C 12.03125 -7.191406 11.9375 -7.484375 11.75 -7.734375 C 11.570312 -7.992188 11.28125 -8.25 10.875 -8.5 C 10.46875 -8.757812 9.378906 -9.285156 7.609375 -10.078125 C 6.015625 -10.804688 4.816406 -11.507812 4.015625 -12.1875 C 3.222656 -12.863281 2.632812 -13.644531 2.25 -14.53125 C 1.863281 -15.414062 1.671875 -16.457031 1.671875 -17.65625 C 1.671875 -19.914062 2.488281 -21.675781 4.125 -22.9375 C 5.769531 -24.195312 8.023438 -24.828125 10.890625 -24.828125 C 13.429688 -24.828125 16.015625 -24.238281 18.640625 -23.0625 L 16.625 -17.953125 C 14.332031 -19.003906 12.359375 -19.53125 10.703125 -19.53125 C 9.835938 -19.53125 9.207031 -19.378906 8.8125 -19.078125 C 8.425781 -18.773438 8.234375 -18.398438 8.234375 -17.953125 C 8.234375 -17.472656 8.476562 -17.046875 8.96875 -16.671875 C 9.46875 -16.296875 10.816406 -15.601562 13.015625 -14.59375 C 15.128906 -13.644531 16.59375 -12.625 17.40625 -11.53125 C 18.226562 -10.445312 18.640625 -9.082031 18.640625 -7.4375 Z M 18.640625 -7.4375 "/></g></g></g><g fill="#303030" fill-opacity="1"><g transform="translate(219.891869, 248.659964)"><g><path d="M 23.453125 -24.46875 L 23.453125 -9.734375 C 23.453125 -6.535156 22.546875 -4.054688 20.734375 -2.296875 C 18.921875 -0.546875 16.304688 0.328125 12.890625 0.328125 C 9.554688 0.328125 6.992188 -0.519531 5.203125 -2.21875 C 3.410156 -3.925781 2.515625 -6.382812 2.515625 -9.59375 L 2.515625 -24.46875 L 9.15625 -24.46875 L 9.15625 -10.109375 C 9.15625 -8.378906 9.476562 -7.125 10.125 -6.34375 C 10.769531 -5.5625 11.722656 -5.171875 12.984375 -5.171875 C 14.335938 -5.171875 15.316406 -5.554688 15.921875 -6.328125 C 16.535156 -7.109375 16.84375 -8.378906 16.84375 -10.140625 L 16.84375 -24.46875 Z M 23.453125 -24.46875 "/></g></g></g><g fill="#303030" fill-opacity="1"><g transform="translate(245.834193, 248.659964)"><g><path d="M 18.640625 -7.4375 C 18.640625 -5.914062 18.253906 -4.566406 17.484375 -3.390625 C 16.722656 -2.210938 15.613281 -1.296875 14.15625 -0.640625 C 12.707031 0.00390625 11.007812 0.328125 9.0625 0.328125 C 7.425781 0.328125 6.054688 0.21875 4.953125 0 C 3.847656 -0.226562 2.695312 -0.628906 1.5 -1.203125 L 1.5 -7.09375 C 2.757812 -6.445312 4.070312 -5.941406 5.4375 -5.578125 C 6.800781 -5.210938 8.050781 -5.03125 9.1875 -5.03125 C 10.164062 -5.03125 10.882812 -5.203125 11.34375 -5.546875 C 11.800781 -5.890625 12.03125 -6.328125 12.03125 -6.859375 C 12.03125 -7.191406 11.9375 -7.484375 11.75 -7.734375 C 11.570312 -7.992188 11.28125 -8.25 10.875 -8.5 C 10.46875 -8.757812 9.378906 -9.285156 7.609375 -10.078125 C 6.015625 -10.804688 4.816406 -11.507812 4.015625 -12.1875 C 3.222656 -12.863281 2.632812 -13.644531 2.25 -14.53125 C 1.863281 -15.414062 1.671875 -16.457031 1.671875 -17.65625 C 1.671875 -19.914062 2.488281 -21.675781 4.125 -22.9375 C 5.769531 -24.195312 8.023438 -24.828125 10.890625 -24.828125 C 13.429688 -24.828125 16.015625 -24.238281 18.640625 -23.0625 L 16.625 -17.953125 C 14.332031 -19.003906 12.359375 -19.53125 10.703125 -19.53125 C 9.835938 -19.53125 9.207031 -19.378906 8.8125 -19.078125 C 8.425781 -18.773438 8.234375 -18.398438 8.234375 -17.953125 C 8.234375 -17.472656 8.476562 -17.046875 8.96875 -16.671875 C 9.46875 -16.296875 10.816406 -15.601562 13.015625 -14.59375 C 15.128906 -13.644531 16.59375 -12.625 17.40625 -11.53125 C 18.226562 -10.445312 18.640625 -9.082031 18.640625 -7.4375 Z M 18.640625 -7.4375 "/></g></g></g><g fill="#303030" fill-opacity="1"><g transform="translate(132.089226, 268.748567)"><g><path d="M 8.9375 0 L 1.765625 0 L 1.765625 -12.875 L 8.9375 -12.875 L 8.9375 -11.546875 L 3.265625 -11.546875 L 3.265625 -7.390625 L 8.609375 -7.390625 L 8.609375 -6.078125 L 3.265625 -6.078125 L 3.265625 -1.34375 L 8.9375 -1.34375 Z M 8.9375 0 "/></g></g></g><g fill="#303030" fill-opacity="1"><g transform="translate(148.542851, 268.748567)"><g><path d="M 10.34375 0 L 8.640625 0 L 5.171875 -5.65625 L 1.65625 0 L 0.078125 0 L 4.34375 -6.71875 L 0.359375 -12.875 L 2.015625 -12.875 L 5.21875 -7.78125 L 8.4375 -12.875 L 10.03125 -12.875 L 6.046875 -6.78125 Z M 10.34375 0 "/></g></g></g><g fill="#303030" fill-opacity="1"><g transform="translate(165.375138, 268.748567)"><g><path d="M 9.9375 -9.125 C 9.9375 -7.820312 9.488281 -6.816406 8.59375 -6.109375 C 7.707031 -5.410156 6.4375 -5.0625 4.78125 -5.0625 L 3.265625 -5.0625 L 3.265625 0 L 1.765625 0 L 1.765625 -12.875 L 5.109375 -12.875 C 8.328125 -12.875 9.9375 -11.625 9.9375 -9.125 Z M 3.265625 -6.34375 L 4.609375 -6.34375 C 5.941406 -6.34375 6.898438 -6.554688 7.484375 -6.984375 C 8.078125 -7.421875 8.375 -8.109375 8.375 -9.046875 C 8.375 -9.898438 8.09375 -10.535156 7.53125 -10.953125 C 6.976562 -11.367188 6.113281 -11.578125 4.9375 -11.578125 L 3.265625 -11.578125 Z M 3.265625 -6.34375 "/></g></g></g><g fill="#303030" fill-opacity="1"><g transform="translate(182.656545, 268.748567)"><g><path d="M 3.265625 -5.359375 L 3.265625 0 L 1.765625 0 L 1.765625 -12.875 L 5.296875 -12.875 C 6.878906 -12.875 8.046875 -12.570312 8.796875 -11.96875 C 9.554688 -11.363281 9.9375 -10.453125 9.9375 -9.234375 C 9.9375 -7.535156 9.070312 -6.382812 7.34375 -5.78125 L 10.84375 0 L 9.0625 0 L 5.953125 -5.359375 Z M 3.265625 -6.640625 L 5.3125 -6.640625 C 6.375 -6.640625 7.148438 -6.847656 7.640625 -7.265625 C 8.128906 -7.679688 8.375 -8.3125 8.375 -9.15625 C 8.375 -10.007812 8.125 -10.625 7.625 -11 C 7.125 -11.375 6.320312 -11.5625 5.21875 -11.5625 L 3.265625 -11.5625 Z M 3.265625 -6.640625 "/></g></g></g><g fill="#303030" fill-opacity="1"><g transform="translate(200.228558, 268.748567)"><g><path d="M 8.9375 0 L 1.765625 0 L 1.765625 -12.875 L 8.9375 -12.875 L 8.9375 -11.546875 L 3.265625 -11.546875 L 3.265625 -7.390625 L 8.609375 -7.390625 L 8.609375 -6.078125 L 3.265625 -6.078125 L 3.265625 -1.34375 L 8.9375 -1.34375 Z M 8.9375 0 "/></g></g></g><g fill="#303030" fill-opacity="1"><g transform="translate(216.682185, 268.748567)"><g><path d="M 9.03125 -3.421875 C 9.03125 -2.285156 8.617188 -1.398438 7.796875 -0.765625 C 6.972656 -0.140625 5.859375 0.171875 4.453125 0.171875 C 2.929688 0.171875 1.757812 -0.0195312 0.9375 -0.40625 L 0.9375 -1.859375 C 1.457031 -1.628906 2.03125 -1.453125 2.65625 -1.328125 C 3.28125 -1.203125 3.898438 -1.140625 4.515625 -1.140625 C 5.503906 -1.140625 6.25 -1.328125 6.75 -1.703125 C 7.257812 -2.078125 7.515625 -2.601562 7.515625 -3.28125 C 7.515625 -3.726562 7.425781 -4.09375 7.25 -4.375 C 7.070312 -4.664062 6.769531 -4.929688 6.34375 -5.171875 C 5.925781 -5.410156 5.289062 -5.679688 4.4375 -5.984375 C 3.238281 -6.410156 2.378906 -6.914062 1.859375 -7.5 C 1.347656 -8.09375 1.09375 -8.863281 1.09375 -9.8125 C 1.09375 -10.800781 1.46875 -11.585938 2.21875 -12.171875 C 2.96875 -12.765625 3.953125 -13.0625 5.171875 -13.0625 C 6.453125 -13.0625 7.628906 -12.828125 8.703125 -12.359375 L 8.234375 -11.046875 C 7.171875 -11.492188 6.140625 -11.71875 5.140625 -11.71875 C 4.347656 -11.71875 3.726562 -11.546875 3.28125 -11.203125 C 2.832031 -10.867188 2.609375 -10.398438 2.609375 -9.796875 C 2.609375 -9.347656 2.691406 -8.976562 2.859375 -8.6875 C 3.023438 -8.40625 3.300781 -8.144531 3.6875 -7.90625 C 4.082031 -7.664062 4.679688 -7.40625 5.484375 -7.125 C 6.835938 -6.644531 7.765625 -6.128906 8.265625 -5.578125 C 8.773438 -5.023438 9.03125 -4.304688 9.03125 -3.421875 Z M 9.03125 -3.421875 "/></g></g></g><g fill="#303030" fill-opacity="1"><g transform="translate(233.003713, 268.748567)"><g><path d="M 9.03125 -3.421875 C 9.03125 -2.285156 8.617188 -1.398438 7.796875 -0.765625 C 6.972656 -0.140625 5.859375 0.171875 4.453125 0.171875 C 2.929688 0.171875 1.757812 -0.0195312 0.9375 -0.40625 L 0.9375 -1.859375 C 1.457031 -1.628906 2.03125 -1.453125 2.65625 -1.328125 C 3.28125 -1.203125 3.898438 -1.140625 4.515625 -1.140625 C 5.503906 -1.140625 6.25 -1.328125 6.75 -1.703125 C 7.257812 -2.078125 7.515625 -2.601562 7.515625 -3.28125 C 7.515625 -3.726562 7.425781 -4.09375 7.25 -4.375 C 7.070312 -4.664062 6.769531 -4.929688 6.34375 -5.171875 C 5.925781 -5.410156 5.289062 -5.679688 4.4375 -5.984375 C 3.238281 -6.410156 2.378906 -6.914062 1.859375 -7.5 C 1.347656 -8.09375 1.09375 -8.863281 1.09375 -9.8125 C 1.09375 -10.800781 1.46875 -11.585938 2.21875 -12.171875 C 2.96875 -12.765625 3.953125 -13.0625 5.171875 -13.0625 C 6.453125 -13.0625 7.628906 -12.828125 8.703125 -12.359375 L 8.234375 -11.046875 C 7.171875 -11.492188 6.140625 -11.71875 5.140625 -11.71875 C 4.347656 -11.71875 3.726562 -11.546875 3.28125 -11.203125 C 2.832031 -10.867188 2.609375 -10.398438 2.609375 -9.796875 C 2.609375 -9.347656 2.691406 -8.976562 2.859375 -8.6875 C 3.023438 -8.40625 3.300781 -8.144531 3.6875 -7.90625 C 4.082031 -7.664062 4.679688 -7.40625 5.484375 -7.125 C 6.835938 -6.644531 7.765625 -6.128906 8.265625 -5.578125 C 8.773438 -5.023438 9.03125 -4.304688 9.03125 -3.421875 Z M 9.03125 -3.421875 "/></g></g></g></svg>